<?xml version="1.0" standalone="no"?>
<!DOCTYPE svg PUBLIC "-//W3C//DTD SVG 20010904//EN"
 "http://www.w3.org/TR/2001/REC-SVG-20010904/DTD/svg10.dtd">
<svg version="1.0" xmlns="http://www.w3.org/2000/svg"
 width="1200.000000pt" height="1200.000000pt" viewBox="0 0 1200.000000 1200.000000"
 preserveAspectRatio="xMidYMid meet">
<metadata>
Created by potrace 1.11, written by Peter Selinger 2001-2013
</metadata>
<g transform="translate(0.000000,1200.000000) scale(0.100000,-0.100000)"
fill="#000000" stroke="none">
<path d="M4471 10580 c-20 -12 -20 -66 -2 -167 20 -107 20 -117 1 -121 -10 -2
-30 26 -59 80 -52 99 -77 130 -90 109 -15 -23 -2 -71 50 -184 54 -119 61 -143
47 -169 -12 -24 -25 -23 -65 8 -47 36 -87 46 -110 28 -17 -14 -17 -15 7 -32
52 -36 90 -75 96 -98 3 -13 19 -35 35 -49 l30 -24 -11 -93 c-6 -51 -13 -104
-16 -118 -2 -14 -6 -50 -9 -80 -3 -30 -8 -71 -10 -90 -9 -66 -14 -115 -20
-175 -8 -92 -16 -157 -20 -185 -2 -14 -7 -41 -10 -60 -3 -19 -10 -57 -15 -85
-12 -65 -19 -102 -26 -145 -3 -19 -7 -46 -9 -59 -3 -14 -23 -41 -46 -60 -35
-31 -40 -41 -37 -69 3 -29 -3 -41 -42 -82 -181 -191 -371 -454 -476 -660 -25
-50 -39 -68 -52 -65 -9 1 -51 6 -92 10 -41 4 -83 9 -94 11 -10 2 -51 6 -90 10
-57 5 -146 34 -146 47 0 2 12 3 28 3 68 0 157 15 179 30 47 30 167 335 195
494 13 71 10 156 -6 206 -4 13 -1 27 7 35 39 41 51 117 30 187 -13 43 -14 55
-4 62 12 7 5 25 -26 69 -1 2 -14 -4 -27 -13 -14 -8 -31 -13 -39 -10 -8 3 -42
-4 -77 -16 -34 -12 -65 -18 -69 -15 -9 9 -8 29 1 36 5 3 -3 39 -17 80 -26 75
-31 96 -39 163 -9 68 -48 196 -70 228 -23 34 -59 49 -91 38 -12 -5 -26 -2 -35
5 -27 23 -133 73 -195 91 -42 13 -92 18 -170 17 -95 0 -122 -5 -200 -31 -76
-25 -201 -89 -267 -134 -13 -10 -21 -9 -35 4 -10 8 -23 13 -30 11 -7 -3 -14
10 -18 34 -11 62 -26 96 -63 135 -51 54 -109 78 -189 79 -76 1 -122 -9 -236
-53 l-77 -30 30 -28 c27 -25 29 -31 20 -55 -6 -16 -22 -41 -36 -58 -67 -79
-114 -215 -115 -330 0 -65 4 -88 26 -132 29 -61 98 -114 149 -117 17 0 38 -2
46 -2 8 -1 32 2 54 6 21 5 40 7 42 5 2 -1 -3 -27 -12 -57 -18 -67 -20 -178 -5
-243 26 -112 96 -198 205 -252 68 -35 71 -37 73 -74 2 -52 43 -130 88 -170 42
-37 81 -37 138 -2 l36 22 58 -40 c32 -21 78 -48 103 -59 92 -42 118 -52 130
-52 7 0 10 -7 6 -16 -3 -9 -6 -21 -6 -28 0 -10 -27 -13 -102 -13 -57 -1 -121
-4 -143 -7 -22 -3 -60 -8 -84 -11 -25 -4 -82 -19 -127 -34 -273 -92 -497 -334
-641 -692 -40 -101 -103 -323 -118 -416 -3 -21 -8 -51 -10 -68 -35 -206 -40
-601 -9 -810 8 -58 33 -216 39 -245 11 -59 15 -75 40 -167 30 -111 44 -159 56
-188 4 -11 24 -62 44 -114 81 -213 236 -479 362 -620 12 -14 27 -45 32 -70 19
-87 71 -233 120 -334 62 -129 134 -231 210 -297 55 -49 59 -56 55 -89 -2 -20
-6 -58 -8 -86 -3 -27 -8 -68 -11 -90 -2 -22 -7 -62 -10 -90 -21 -193 -24 -222
-35 -315 -5 -41 -12 -100 -15 -130 -3 -30 -8 -71 -10 -90 -2 -19 -7 -60 -10
-90 -3 -30 -8 -71 -10 -90 -3 -19 -7 -62 -10 -95 -3 -33 -7 -71 -9 -85 -3 -14
-7 -54 -11 -90 -3 -35 -11 -68 -18 -72 -7 -4 -32 -8 -57 -9 -25 0 -61 -2 -80
-4 -90 -7 -202 -16 -270 -21 -41 -3 -78 -8 -82 -10 -5 -3 -8 -30 -8 -60 0 -47
-3 -56 -22 -63 -18 -7 -228 -53 -353 -77 -11 -2 -29 -6 -40 -8 -11 -2 -78 -17
-150 -31 -71 -15 -134 -28 -140 -30 -5 -1 -37 -8 -71 -15 l-61 -13 -22 -96
c-13 -53 -24 -103 -26 -111 -2 -8 -10 -43 -19 -76 -24 -93 -27 -90 64 -90 l80
0 6 36 c4 19 8 43 10 53 2 10 8 55 15 100 6 45 14 85 18 89 3 4 38 12 76 18
39 6 81 13 95 15 74 12 230 37 260 41 19 3 60 9 90 14 192 33 175 36 172 -32
l-3 -57 55 0 c61 1 62 2 72 79 8 62 8 62 104 75 19 3 49 7 65 10 17 3 59 10
95 16 36 5 76 12 88 15 26 5 25 11 7 -141 -2 -16 -7 -64 -10 -105 -7 -70 -19
-105 -34 -96 -3 2 -28 0 -56 -4 -27 -4 -79 -11 -115 -15 -36 -4 -72 -8 -80
-10 -9 -2 -43 -6 -75 -10 -33 -4 -67 -9 -75 -10 -8 -2 -40 -6 -70 -10 -30 -3
-66 -8 -80 -10 -55 -9 -297 -47 -320 -51 -14 -2 -42 -7 -64 -10 -41 -6 -510
-102 -536 -109 -8 -2 -53 -13 -100 -25 -80 -20 -123 -39 -90 -41 20 -1 33 -4
110 -24 83 -22 69 -19 245 -55 161 -34 484 -95 550 -104 82 -11 121 -17 143
-22 12 -2 44 -7 70 -9 26 -3 56 -7 67 -10 11 -2 43 -7 70 -10 28 -4 61 -8 75
-11 14 -2 50 -6 80 -10 30 -3 65 -7 76 -9 12 -2 47 -6 78 -10 53 -7 56 -8 51
-34 -2 -14 -7 -53 -10 -86 -4 -33 -8 -71 -10 -85 -2 -14 -7 -56 -11 -95 -3
-38 -8 -78 -10 -88 -2 -10 -6 -53 -9 -95 l-7 -77 121 0 c114 0 121 1 122 20 0
11 2 27 3 35 2 8 7 49 11 90 4 41 8 86 10 100 8 74 27 238 29 255 3 16 11 20
37 20 33 -1 186 -13 241 -20 15 -2 64 -6 110 -10 46 -3 94 -8 108 -10 14 -1
70 -6 125 -9 55 -4 116 -9 135 -11 19 -1 85 -6 145 -10 61 -3 137 -8 170 -10
33 -3 110 -7 170 -10 61 -3 142 -8 180 -10 39 -2 149 -7 245 -10 186 -7 289
-12 304 -14 7 -1 1 -127 -8 -178 -5 -22 -18 -158 -20 -193 l-1 -25 119 0 c98
0 119 3 121 15 3 20 16 127 20 165 1 17 6 62 10 100 5 39 9 78 10 88 1 18 34
19 891 23 489 2 900 3 913 4 14 0 25 -1 27 -3 1 -1 5 -33 8 -72 4 -38 11 -106
16 -150 6 -44 12 -97 13 -117 2 -21 7 -41 11 -45 4 -5 59 -8 123 -8 l115 0 -7
65 c-10 99 -16 152 -20 180 -2 14 -7 55 -10 93 l-7 67 38 1 c22 0 66 2 99 4
33 1 143 6 245 10 204 8 262 10 425 19 61 4 153 9 205 11 52 3 131 8 175 11
44 2 112 7 150 9 131 8 240 16 290 20 192 17 237 17 296 -2 32 -10 61 -25 63
-33 3 -8 7 -46 11 -85 3 -38 8 -83 10 -100 3 -16 7 -50 9 -75 5 -52 17 -156
21 -179 2 -13 21 -16 123 -16 l121 0 -4 30 c-2 16 -7 57 -10 90 -3 33 -8 74
-10 90 -5 30 -11 94 -21 195 -2 30 -7 60 -9 67 -2 6 15 19 38 28 23 9 49 23
59 32 9 8 40 16 70 19 29 2 78 6 108 9 30 3 80 8 110 11 30 2 80 7 110 10 30
3 75 8 100 10 25 2 63 5 85 8 22 3 72 8 110 11 39 3 81 8 95 11 14 2 55 6 92
9 36 3 81 8 100 10 18 3 58 7 88 10 30 3 71 8 90 10 19 3 58 7 85 10 28 3 66
8 85 10 19 3 58 7 85 11 28 3 61 7 75 9 14 2 50 6 80 10 30 3 66 8 80 10 14 2
50 7 80 10 30 4 67 8 81 11 15 2 47 6 70 9 39 5 152 20 219 30 14 2 45 7 70
10 50 7 221 33 260 39 14 3 39 5 55 5 44 2 13 18 -50 27 -27 3 -59 8 -70 10
-17 3 -370 54 -490 70 -22 3 -51 7 -65 9 -14 2 -50 6 -80 10 -30 4 -66 8 -80
10 -14 2 -46 6 -72 9 -27 3 -69 9 -95 12 -27 3 -55 12 -64 20 -8 7 -24 15 -35
17 -12 1 -36 19 -53 40 -78 88 -336 168 -583 179 l-58 3 0 992 0 993 33 1 c17
0 43 2 57 4 14 2 45 6 70 9 263 31 496 143 546 261 8 20 22 35 32 36 9 0 42 2
72 3 111 5 187 46 274 147 59 69 134 215 150 291 3 13 8 34 11 48 20 87 24
128 21 240 -5 185 -34 276 -105 327 -33 23 -41 37 -49 78 -11 52 -9 321 2 365
3 14 9 41 12 60 38 215 157 477 308 680 37 49 56 85 56 103 0 36 -40 77 -77
78 -35 2 -20 2 -385 -6 l-308 -6 -1 23 c-2 58 -19 253 -24 280 -3 12 -7 40
-10 63 -9 60 -43 189 -67 253 -71 190 -194 318 -325 339 -21 3 -63 19 -93 34
-60 30 -170 69 -195 69 -20 0 -31 30 -39 105 -3 33 -8 71 -11 85 -2 14 -9 61
-15 106 -10 78 -10 82 16 127 l26 47 28 -30 c23 -25 36 -30 72 -30 63 0 145
44 182 97 59 85 36 235 -47 303 -16 14 -17 18 -3 45 42 85 74 275 70 418 -4
149 -49 244 -179 373 -68 67 -181 137 -240 148 -11 2 -38 8 -60 14 -22 6 -119
13 -216 16 -97 3 -182 8 -190 10 -8 3 -34 7 -59 10 -124 14 -277 62 -321 102
-13 12 -18 12 -27 1 -11 -13 -83 -164 -81 -170 1 -1 -6 -26 -15 -56 -9 -30
-16 -66 -16 -80 0 -14 -7 -39 -15 -55 -55 -106 -98 -279 -104 -418 -1 -26 -1
-26 -82 -27 -44 0 -84 -3 -88 -6 -19 -11 -18 -46 1 -70 11 -14 17 -25 13 -25
-3 0 -1 -9 5 -20 6 -11 17 -20 26 -20 11 0 12 -4 5 -18 -5 -10 -9 -45 -8 -78
3 -94 58 -164 138 -173 7 -1 9 -11 4 -28 -41 -162 -54 -382 -28 -482 18 -68
52 -136 90 -177 33 -37 110 -81 159 -90 19 -3 34 -9 34 -13 0 -15 -86 -77
-135 -96 -114 -47 -208 -121 -282 -222 -68 -93 -103 -174 -143 -333 -9 -34
-14 -40 -21 -28 -5 9 -49 135 -98 281 -49 145 -100 281 -114 301 -31 46 -77
81 -136 102 -25 10 -55 25 -66 34 -33 29 -78 48 -151 65 -38 9 -79 23 -92 31
-13 8 -39 16 -59 17 l-35 2 5 83 c8 122 11 120 -258 138 -38 3 -88 7 -110 9
-22 2 -88 7 -146 11 -105 7 -107 6 -122 -17 -8 -13 -18 -62 -22 -109 -12 -147
-13 -163 -20 -260 -4 -52 -9 -111 -11 -130 -1 -19 -6 -83 -10 -141 -6 -100 -5
-108 15 -128 12 -12 29 -22 39 -22 9 -1 26 -3 37 -4 11 -1 65 -6 120 -9 55 -4
118 -9 140 -11 173 -19 237 -20 265 -5 24 13 38 63 39 143 1 30 5 37 20 37 11
0 22 -9 26 -19 10 -33 82 -60 175 -66 168 -12 154 -8 161 -51 4 -22 10 -61 13
-89 4 -27 11 -80 16 -118 6 -37 12 -86 15 -110 3 -23 7 -53 10 -67 3 -14 7
-45 10 -70 3 -25 11 -84 18 -131 l13 -86 -626 -1 c-344 0 -638 -1 -653 -1 -17
-1 -38 -12 -53 -28 -24 -26 -25 -33 -20 -93 4 -36 8 -76 11 -90 5 -29 50 -393
65 -525 10 -89 15 -131 25 -210 3 -22 8 -56 10 -75 2 -19 7 -54 10 -77 3 -24
7 -60 9 -80 10 -78 18 -149 21 -163 1 -8 6 -46 10 -84 5 -53 12 -74 31 -93 13
-13 24 -25 24 -26 0 -4 -990 0 -991 4 -6 14 15 48 36 57 13 6 30 24 38 39 11
22 104 329 123 403 2 8 57 200 123 427 117 403 126 436 123 479 -4 47 -110
114 -208 131 -27 5 -416 9 -864 8 l-815 0 -32 -23 c-22 -16 -36 -36 -43 -65
-10 -36 -67 -247 -191 -707 -17 -63 -34 -120 -38 -127 -8 -15 -91 128 -141
245 -21 48 -53 146 -71 217 -42 166 -46 313 -10 410 12 33 24 67 26 75 33 109
46 164 52 215 9 67 9 417 1 482 -5 41 -5 42 85 130 74 73 182 193 288 321 117
139 301 437 363 585 9 20 22 52 30 70 22 52 46 130 48 160 1 15 8 27 15 27 26
0 54 161 34 199 -7 11 -17 21 -24 21 -9 0 -12 70 -13 293 -1 269 -9 537 -20
664 -3 43 0 58 20 88 14 20 28 57 31 83 3 26 22 90 42 142 61 162 64 173 59
187 -10 26 -42 -4 -80 -77 -49 -93 -78 -93 -55 0 24 101 36 230 21 230 -22 0
-42 -47 -61 -144 -29 -141 -35 -143 -45 -16 -11 155 -27 208 -55 190z m-981
-1534 c0 -12 -100 -64 -106 -55 -7 13 -10 11 51 37 56 24 55 24 55 18z m93
-65 c-2 -6 1 -11 6 -11 5 0 12 -7 15 -16 4 -10 2 -13 -7 -8 -9 5 -9 4 1 -7 18
-20 15 -62 -10 -108 -21 -40 -22 -41 -42 -23 -12 10 -46 33 -77 51 -61 36 -70
57 -30 73 14 5 29 15 33 21 6 9 10 9 17 -2 7 -11 10 -9 15 7 10 31 85 54 79
23z m4857 -75 c0 -3 -4 -8 -10 -11 -5 -3 -10 -1 -10 4 0 6 5 11 10 11 6 0 10
-2 10 -4z m-60 -61 c8 -5 21 -10 28 -11 26 -4 27 -16 3 -35 -30 -24 -41 -24
-36 1 5 26 -4 52 -15 45 -5 -3 -11 -1 -14 4 -7 11 13 9 34 -4z m-13 -36 c-1
-11 -6 -17 -12 -15 -5 2 -9 9 -7 15 1 7 -2 10 -8 6 -6 -3 -8 -10 -5 -15 3 -5
1 -11 -5 -15 -5 -3 -10 1 -10 9 0 8 5 18 10 21 6 4 8 10 5 15 -3 4 4 6 14 3
12 -3 19 -13 18 -24z m96 -15 c1 -10 6 -24 9 -30 4 -6 5 -22 3 -35 -6 -35 -16
-102 -17 -117 -2 -16 -20 -10 -26 8 -3 8 0 10 8 5 8 -5 11 -4 6 3 -3 6 -2 13
4 17 6 3 8 18 5 32 -2 14 -1 31 2 37 12 19 10 44 -3 39 -9 -3 -12 3 -8 22 3
18 1 24 -6 20 -6 -4 -9 -13 -6 -21 6 -17 -10 -19 -20 -2 -4 6 3 19 16 30 26
21 28 20 33 -8z m-75 -20 c4 2 22 -8 41 -23 30 -25 31 -28 16 -41 -15 -12 -16
-12 -13 6 2 13 -3 19 -16 19 -11 0 -21 6 -23 12 -3 9 -10 9 -27 -2 -22 -15
-23 -14 -23 14 0 26 3 29 19 20 10 -5 22 -8 26 -5z m-48 -14 c0 -5 -5 -10 -11
-10 -8 0 -8 -4 1 -15 9 -11 17 -12 31 -4 11 5 24 7 29 4 12 -7 4 -25 -11 -25
-6 0 -7 5 -3 11 5 8 1 8 -14 0 -26 -14 -51 -5 -47 17 2 9 4 20 4 25 1 11 21 8
21 -3z m67 -55 c-17 -15 -34 -22 -44 -18 -13 5 -15 2 -11 -15 4 -12 3 -24 -2
-27 -10 -6 -22 24 -14 36 3 5 0 9 -5 9 -6 0 -11 4 -11 9 0 4 16 7 34 5 21 -1
40 3 47 12 6 8 17 14 23 14 6 0 -1 -12 -17 -25z m28 -13 c17 -12 16 -34 -2
-54 -17 -19 -17 -21 6 -39 18 -14 19 -19 7 -19 -9 0 -16 4 -16 10 0 5 -7 7
-15 4 -8 -3 -21 1 -29 8 -12 13 -11 19 10 44 13 16 23 24 24 19 0 -6 -6 -17
-12 -24 -11 -11 -9 -11 8 0 17 10 20 16 12 29 -10 15 -13 15 -32 -4 -12 -12
-21 -24 -19 -27 1 -4 -4 -10 -12 -13 -12 -4 -13 -2 -7 12 5 9 7 23 5 30 -3 7
1 10 10 7 7 -3 20 1 27 10 14 17 20 18 35 7z m-1057 -852 c-15 -23 -28 -17
-21 9 3 11 11 17 19 14 10 -4 11 -9 2 -23z m-18 -263 c0 -5 -4 -5 -10 -2 -5 3
-10 14 -10 23 0 15 2 15 10 2 5 -8 10 -19 10 -23z m1371 -1325 c39 -95 57
-201 54 -321 -3 -105 -20 -184 -67 -304 -28 -74 -31 -78 -56 -73 -53 11 -215
25 -319 28 -84 2 -77 -11 -99 183 -11 103 -11 109 11 113 32 6 64 42 71 80 4
19 27 64 51 99 38 56 193 327 193 338 0 2 10 20 21 40 l22 36 43 -73 c24 -40
58 -106 75 -146z m-286 -757 c67 -7 129 -16 133 -20 2 -2 -20 -16 -50 -31 -71
-36 -145 -85 -187 -123 -19 -17 -36 -30 -37 -28 -1 1 -5 25 -8 52 -3 28 -8 76
-12 108 l-6 58 58 -6 c33 -3 82 -8 109 -10z m-2449 -585 c6 0 11 -6 11 -12 0
-7 3 -42 7 -78 4 -36 9 -78 11 -95 10 -104 18 -172 20 -185 2 -8 6 -49 10 -90
4 -41 9 -83 10 -92 2 -9 7 -49 10 -89 4 -40 8 -80 10 -88 1 -9 6 -50 10 -91 4
-41 9 -84 11 -94 2 -10 6 -50 9 -88 4 -38 8 -76 10 -86 1 -9 6 -51 10 -92 4
-41 8 -82 10 -90 2 -9 6 -47 10 -85 3 -39 8 -81 10 -95 6 -38 13 -107 20 -190
4 -41 9 -83 11 -92 3 -9 7 -43 9 -75 3 -32 7 -74 9 -93 3 -19 8 -60 11 -90 9
-87 16 -152 20 -170 2 -9 6 -50 10 -91 3 -41 8 -81 10 -89 2 -8 7 -44 10 -80
3 -36 8 -85 10 -110 9 -70 14 -120 21 -185 3 -33 7 -64 7 -70 1 -6 -91 -9
-263 -8 -146 1 -419 2 -606 2 l-342 1 -4 43 c-3 23 -1 45 4 48 5 3 11 43 13
90 7 125 13 191 35 344 17 123 21 146 65 370 68 341 79 469 80 885 0 394 -26
685 -73 806 -26 68 -92 151 -140 176 l-42 23 77 5 c57 4 766 4 879 0z m1414 0
l55 -1 -69 -35 c-142 -73 -255 -166 -297 -248 -22 -41 -33 -138 -19 -165 14
-28 24 -56 120 -311 17 -47 45 -119 60 -160 16 -41 106 -277 199 -525 93 -247
172 -457 176 -466 5 -14 -48 -16 -585 -16 -537 0 -590 1 -591 16 0 9 -2 25 -3
36 -2 11 -6 52 -10 90 -4 39 -9 84 -11 100 -6 45 -13 113 -20 180 -3 33 -10
92 -15 130 -5 39 -12 97 -15 130 -4 33 -8 78 -11 100 -16 149 -15 142 -28 255
-3 25 -8 70 -11 100 -3 30 -12 109 -20 175 -8 66 -17 152 -20 190 -3 39 -8 80
-10 91 -3 12 -7 48 -10 80 -3 33 -7 73 -10 89 -2 17 -7 60 -10 97 l-6 67 33 3
c26 2 904 1 1128 -2z m-2805 -555 c17 -1 45 -3 63 -4 18 0 31 -4 29 -8 -3 -5
-8 -37 -11 -73 -4 -36 -9 -81 -11 -100 -2 -19 -7 -60 -11 -90 -3 -30 -7 -68
-9 -85 -2 -16 -7 -59 -10 -95 -3 -35 -8 -78 -10 -95 -2 -16 -9 -75 -15 -130
-6 -55 -13 -116 -15 -135 -3 -19 -7 -56 -10 -82 -9 -80 -15 -136 -20 -185 -3
-27 -8 -66 -10 -88 -11 -101 -18 -160 -20 -174 -2 -9 -4 -19 -4 -22 -1 -3 -80
-6 -176 -6 -96 0 -173 3 -171 6 2 3 7 33 10 66 4 33 11 96 17 140 13 110 17
141 24 205 3 30 8 71 10 90 2 19 7 58 9 85 3 28 10 88 15 135 6 47 13 117 16
155 4 39 8 81 10 95 2 14 7 66 11 115 4 50 8 99 9 110 1 11 3 39 4 62 1 38 6
46 54 83 l52 41 70 -6 c39 -4 84 -8 100 -10z m3711 -177 c4 -5 12 -54 19 -128
4 -36 8 -76 10 -90 2 -14 6 -52 10 -85 3 -33 7 -76 10 -95 7 -55 15 -131 20
-180 4 -43 11 -106 20 -180 2 -19 9 -80 15 -135 6 -55 13 -113 15 -130 2 -16
7 -62 10 -101 l7 -70 -171 -1 c-94 0 -173 3 -175 6 -5 7 -64 303 -99 496 -33
181 -100 388 -185 576 -23 51 -52 120 -52 124 0 4 542 -4 546 -7z m755 -63 c2
-47 14 -94 51 -187 l31 -78 65 0 c71 0 102 16 102 53 0 11 -11 51 -25 89 -31
85 -31 88 -2 82 12 -3 66 -10 120 -16 l97 -11 0 -46 c1 -58 1 -1889 0 -1916 0
-17 -8 -20 -53 -23 -50 -2 -75 -5 -169 -18 -64 -8 -207 -44 -261 -65 -50 -20
-94 -26 -69 -10 14 8 13 21 -7 128 -6 29 -8 87 -6 130 6 101 16 253 30 463 12
186 16 247 20 286 2 23 7 82 10 130 7 105 13 165 23 254 9 82 8 360 -1 505 -4
61 -10 151 -13 202 l-6 92 31 -12 c20 -7 31 -19 32 -32z m-5357 -162 c-13
-140 -8 -362 11 -513 7 -53 24 -135 46 -230 12 -47 23 -94 25 -105 6 -26 24
-117 24 -120 0 -1 -200 -2 -445 -2 l-445 0 0 143 c0 86 -4 144 -10 146 -10 3
-12 83 -11 301 1 56 5 86 11 82 6 -4 10 13 10 43 l0 49 86 12 c174 24 334 90
466 192 65 49 85 60 130 65 29 3 55 8 57 10 2 2 15 4 28 4 24 0 24 0 17 -77z
m-1038 -181 c6 -4 10 -27 9 -52 -1 -25 3 -54 8 -65 13 -25 12 -376 -1 -384 -5
-3 -10 -60 -10 -126 0 -66 -1 -130 -1 -142 -1 -21 -5 -22 -67 -21 l-65 1 6 51
c4 28 8 62 10 76 2 14 6 57 10 95 3 39 8 81 10 95 4 24 8 64 21 185 3 33 8 67
9 75 5 27 19 174 19 198 0 22 20 29 42 14z m5 -987 c4 -54 3 -199 -3 -208 -5
-9 -35 -13 -148 -20 -19 -2 -25 3 -24 18 1 19 13 127 19 170 1 11 3 28 4 37 1
14 12 17 76 15 44 0 75 -5 76 -12z m1163 4 c4 -3 9 -98 12 -210 3 -112 3 -201
0 -198 -3 3 -7 28 -9 57 -2 29 -6 54 -8 56 -2 2 -47 7 -99 10 -52 4 -115 9
-140 11 -25 2 -81 7 -125 10 -44 3 -105 8 -135 10 -30 3 -82 7 -115 10 -60 5
-218 16 -265 19 -25 2 -25 2 -28 117 l-3 116 455 -1 c250 -1 457 -4 460 -7z
m671 -52 c-4 -33 -8 -76 -10 -96 -4 -40 -13 -120 -20 -166 -2 -16 -7 -61 -11
-100 -3 -38 -8 -77 -9 -85 -2 -8 -4 -23 -4 -33 -1 -10 -4 -16 -8 -14 -7 4
-291 65 -333 72 -8 1 -14 5 -14 9 1 3 5 31 9 62 4 31 8 66 10 78 11 66 17 105
21 141 2 22 7 58 10 80 3 22 8 52 10 68 1 15 5 31 8 36 3 4 82 8 176 8 l171
-1 -6 -59z m294 -82 c17 -56 33 -123 37 -150 8 -63 6 -274 -4 -339 l-7 -50
-67 -1 c-70 -1 -82 8 -73 53 1 9 6 49 9 87 4 39 9 84 11 100 2 17 6 50 9 75
11 105 18 167 22 195 2 17 7 64 11 105 5 55 8 68 14 50 4 -14 21 -70 38 -125z
m2958 -5 c30 -80 60 -161 67 -180 7 -19 40 -107 73 -195 48 -127 60 -168 56
-198 l-5 -39 -122 7 c-66 4 -150 8 -186 11 -88 5 -298 15 -585 28 -85 4 -455
18 -492 19 -7 0 -14 7 -15 16 0 9 -2 21 -3 26 -1 6 -5 42 -9 80 -4 39 -9 81
-11 95 -2 14 -6 52 -10 85 -6 59 -9 85 -19 175 -3 25 -8 70 -11 100 -3 30 -8
69 -10 86 l-4 31 616 -1 615 -1 55 -145z m701 141 c6 -3 13 -40 16 -81 3 -41
8 -84 10 -96 2 -11 7 -51 10 -89 4 -39 8 -81 11 -95 2 -14 7 -47 9 -75 3 -27
10 -93 17 -146 6 -53 9 -113 5 -135 -3 -21 -5 -47 -6 -57 0 -17 -7 -19 -81
-14 -45 3 -84 8 -87 11 -3 3 2 6 11 6 14 0 12 10 -11 76 -24 66 -30 75 -49 71
-21 -4 -25 8 -82 242 -54 221 -91 377 -91 385 0 6 309 3 318 -3z m-5777 -428
c3 -18 6 -66 13 -204 l7 -147 -63 -6 c-35 -3 -92 -9 -128 -12 -36 -4 -69 -9
-73 -11 -8 -5 -5 33 8 142 2 17 7 62 11 100 3 39 8 77 9 85 2 8 4 18 4 21 1 7
36 14 116 25 28 3 52 8 54 10 8 7 41 4 42 -3z m320 -8 c25 -3 57 -8 70 -10 57
-10 277 -45 314 -50 22 -3 63 -10 90 -15 61 -11 104 -18 171 -26 66 -8 74 -14
81 -55 3 -19 7 -41 8 -49 2 -8 4 -23 4 -32 1 -15 9 -17 42 -15 22 2 42 0 45
-5 3 -4 2 -8 -3 -9 -23 -3 -102 -8 -218 -13 -71 -3 -155 -8 -185 -11 -30 -2
-98 -7 -150 -10 -131 -9 -202 -14 -288 -21 l-73 -6 2 159 c2 87 5 164 7 171 2
7 12 11 21 8 9 -2 37 -7 62 -11z m1159 -184 c30 -5 69 -12 85 -15 17 -2 65
-10 108 -17 85 -13 110 -28 50 -30 -21 -1 -98 -3 -170 -5 -75 -3 -133 0 -133
5 0 4 -3 23 -6 40 -7 35 -9 34 66 22z"/>
<path d="M3477 8912 c-15 -16 -15 -19 -2 -19 8 0 13 3 10 5 -3 3 0 11 6 19 17
20 5 16 -14 -5z"/>
<path d="M3505 8899 c-3 -4 2 -6 10 -5 21 3 28 13 10 13 -9 0 -18 -4 -20 -8z"/>
<path d="M3553 8903 c4 -3 -1 -16 -10 -27 -18 -21 -18 -21 4 -2 20 16 23 36 6
36 -4 0 -3 -3 0 -7z"/>
<path d="M3559 8853 c-13 -16 -12 -17 4 -4 16 13 21 21 13 21 -2 0 -10 -8 -17
-17z"/>
<path d="M8397 8823 c-4 -3 -7 -11 -7 -17 0 -6 5 -5 12 2 6 6 9 14 7 17 -3 3
-9 2 -12 -2z"/>
<path d="M8395 8610 c3 -5 8 -10 11 -10 2 0 4 5 4 10 0 6 -5 10 -11 10 -5 0
-7 -4 -4 -10z"/>
</g>
</svg>
